<svg width="286" height="101" viewBox="0 0 286 101" fill="none" xmlns="http://www.w3.org/2000/svg">
<rect x="113" width="60" height="60" rx="18" fill="#2DD4BF"/>
<g clip-path="url(#clip0_1_130)">
<path d="M143 17.5C140.348 17.5 137.804 18.5536 135.929 20.4289C134.054 22.3043 133 24.8478 133 27.5C133 35 143 42.5 143 42.5C143 42.5 153 35 153 27.5C153 24.8478 151.946 22.3043 150.071 20.4289C148.196 18.5536 145.652 17.5 143 17.5ZM143 31.25C142.005 31.25 141.052 30.8549 140.348 30.1517C139.645 29.4484 139.25 28.4946 139.25 27.5C139.25 26.5054 139.645 25.5516 140.348 24.8483C141.052 24.1451 142.005 23.75 143 23.75C143.995 23.75 144.948 24.1451 145.652 24.8483C146.355 25.5516 146.75 26.5054 146.75 27.5C146.75 28.4946 146.355 29.4484 145.652 30.1517C144.948 30.8549 143.995 31.25 143 31.25Z" fill="#06231F"/>
</g>
<path d="M88.7109 96V80H99.6328V83.1406H92.5781V86.4219H98.9375V89.5703H92.5781V96H88.7109ZM101.14 96V84H104.96V96H101.14ZM103.054 82.6016C102.518 82.6016 102.057 82.4245 101.671 82.0703C101.286 81.7109 101.093 81.2786 101.093 80.7734C101.093 80.2734 101.286 79.8464 101.671 79.4922C102.057 79.1328 102.518 78.9531 103.054 78.9531C103.596 78.9531 104.057 79.1328 104.437 79.4922C104.822 79.8464 105.015 80.2734 105.015 80.7734C105.015 81.2786 104.822 81.7109 104.437 82.0703C104.057 82.4245 103.596 82.6016 103.054 82.6016ZM112.561 96.2266C111.306 96.2266 110.223 95.9792 109.311 95.4844C108.405 94.9844 107.707 94.2734 107.218 93.3516C106.733 92.4245 106.491 91.3229 106.491 90.0469C106.491 88.8073 106.736 87.724 107.225 86.7969C107.715 85.8646 108.405 85.1406 109.296 84.625C110.186 84.1042 111.236 83.8438 112.444 83.8438C113.298 83.8438 114.08 83.9766 114.788 84.2422C115.496 84.5078 116.108 84.901 116.624 85.4219C117.14 85.9427 117.541 86.5859 117.827 87.3516C118.113 88.112 118.257 88.9844 118.257 89.9687V90.9219H107.827V88.7031H114.702C114.697 88.2969 114.6 87.9349 114.413 87.6172C114.225 87.2995 113.968 87.0521 113.64 86.875C113.317 86.6927 112.944 86.6016 112.522 86.6016C112.095 86.6016 111.712 86.6979 111.374 86.8906C111.035 87.0781 110.767 87.3359 110.569 87.6641C110.371 87.987 110.267 88.3542 110.257 88.7656V91.0234C110.257 91.513 110.353 91.9427 110.546 92.3125C110.738 92.6771 111.012 92.9609 111.366 93.1641C111.72 93.3672 112.142 93.4687 112.632 93.4687C112.97 93.4687 113.278 93.4219 113.554 93.3281C113.83 93.2344 114.067 93.0964 114.265 92.9141C114.462 92.7318 114.611 92.5078 114.71 92.2422L118.218 92.3437C118.072 93.1302 117.752 93.8151 117.257 94.3984C116.767 94.9766 116.124 95.4271 115.327 95.75C114.53 96.0677 113.608 96.2266 112.561 96.2266ZM123.588 80V96H119.768V80H123.588ZM129.963 96.1719C129.077 96.1719 128.273 95.9427 127.549 95.4844C126.825 95.026 126.247 94.3385 125.814 93.4219C125.382 92.5052 125.166 91.3672 125.166 90.0078C125.166 88.5964 125.39 87.4349 125.838 86.5234C126.286 85.612 126.872 84.9375 127.595 84.5C128.325 84.0625 129.108 83.8438 129.947 83.8438C130.577 83.8438 131.116 83.9531 131.564 84.1719C132.012 84.3854 132.382 84.6615 132.674 85C132.965 85.3385 133.187 85.6901 133.338 86.0547H133.416V80H137.236V96H133.455V94.0547H133.338C133.176 94.4245 132.947 94.7708 132.65 95.0937C132.353 95.4167 131.981 95.6771 131.533 95.875C131.09 96.0729 130.567 96.1719 129.963 96.1719ZM131.291 93.1953C131.754 93.1953 132.15 93.0651 132.478 92.8047C132.806 92.5391 133.059 92.1667 133.236 91.6875C133.413 91.2083 133.502 90.6458 133.502 90C133.502 89.3437 133.413 88.7786 133.236 88.3047C133.064 87.8307 132.812 87.4661 132.478 87.2109C132.15 86.9557 131.754 86.8281 131.291 86.8281C130.817 86.8281 130.416 86.9583 130.088 87.2187C129.76 87.4792 129.51 87.8464 129.338 88.3203C129.171 88.7943 129.088 89.3542 129.088 90C129.088 90.6458 129.174 91.2083 129.345 91.6875C129.517 92.1667 129.765 92.5391 130.088 92.8047C130.416 93.0651 130.817 93.1953 131.291 93.1953Z" fill="#EEF2F7"/>
<path d="M138.689 83.1406V80H152.212V83.1406H147.361V96H143.548V83.1406H138.689ZM152.415 96V84H156.126V86.1875H156.251C156.469 85.3958 156.826 84.8073 157.321 84.4219C157.816 84.0312 158.391 83.8359 159.048 83.8359C159.225 83.8359 159.407 83.849 159.594 83.875C159.782 83.8958 159.956 83.9297 160.118 83.9766V87.2969C159.936 87.2344 159.696 87.1849 159.399 87.1484C159.107 87.112 158.847 87.0937 158.618 87.0937C158.165 87.0937 157.756 87.1953 157.391 87.3984C157.032 87.5964 156.748 87.875 156.54 88.2344C156.337 88.5885 156.235 89.0052 156.235 89.4844V96H152.415ZM164.166 96.2031C163.4 96.2031 162.721 96.0755 162.127 95.8203C161.538 95.5599 161.072 95.1693 160.729 94.6484C160.39 94.1224 160.221 93.4635 160.221 92.6719C160.221 92.0052 160.338 91.4427 160.572 90.9844C160.807 90.526 161.13 90.1536 161.541 89.8672C161.953 89.5807 162.427 89.3646 162.963 89.2187C163.499 89.0677 164.072 88.9661 164.682 88.9141C165.364 88.8516 165.913 88.7865 166.33 88.7188C166.747 88.6458 167.049 88.5443 167.236 88.4141C167.429 88.2786 167.525 88.0885 167.525 87.8437V87.8047C167.525 87.4036 167.387 87.0937 167.111 86.875C166.835 86.6562 166.463 86.5469 165.994 86.5469C165.489 86.5469 165.083 86.6562 164.775 86.875C164.468 87.0937 164.273 87.3958 164.19 87.7812L160.666 87.6562C160.77 86.9271 161.038 86.276 161.471 85.7031C161.908 85.125 162.507 84.6719 163.268 84.3437C164.033 84.0104 164.953 83.8438 166.025 83.8438C166.791 83.8438 167.497 83.9349 168.143 84.1172C168.788 84.2943 169.351 84.5547 169.83 84.8984C170.309 85.237 170.679 85.6536 170.94 86.1484C171.205 86.6432 171.338 87.2083 171.338 87.8437V96H167.744V94.3281H167.65C167.437 94.7344 167.163 95.0781 166.83 95.3594C166.502 95.6406 166.114 95.8516 165.666 95.9922C165.223 96.1328 164.723 96.2031 164.166 96.2031ZM165.346 93.7031C165.757 93.7031 166.127 93.6198 166.455 93.4531C166.788 93.2865 167.054 93.0573 167.252 92.7656C167.45 92.4687 167.549 92.125 167.549 91.7344V90.5937C167.44 90.651 167.307 90.7031 167.15 90.75C166.999 90.7969 166.833 90.8411 166.65 90.8828C166.468 90.9245 166.281 90.9609 166.088 90.9922C165.895 91.0234 165.71 91.0521 165.533 91.0781C165.174 91.1354 164.867 91.224 164.611 91.3437C164.361 91.4635 164.169 91.6198 164.033 91.8125C163.903 92 163.838 92.224 163.838 92.4844C163.838 92.8802 163.979 93.1823 164.26 93.3906C164.546 93.599 164.908 93.7031 165.346 93.7031ZM178.835 96.2266C177.57 96.2266 176.484 95.9661 175.578 95.4453C174.677 94.9245 173.984 94.2005 173.5 93.2734C173.015 92.3411 172.773 91.263 172.773 90.0391C172.773 88.8099 173.015 87.7318 173.5 86.8047C173.989 85.8724 174.684 85.1458 175.585 84.625C176.492 84.1042 177.572 83.8438 178.828 83.8438C179.937 83.8438 180.903 84.0443 181.726 84.4453C182.554 84.8464 183.2 85.4141 183.664 86.1484C184.132 86.8776 184.38 87.7344 184.406 88.7188H180.835C180.763 88.1042 180.554 87.6224 180.21 87.2734C179.872 86.9245 179.429 86.75 178.882 86.75C178.44 86.75 178.052 86.875 177.718 87.125C177.385 87.3698 177.125 87.7344 176.937 88.2187C176.755 88.6979 176.664 89.2917 176.664 90C176.664 90.7083 176.755 91.3073 176.937 91.7969C177.125 92.2812 177.385 92.6484 177.718 92.8984C178.052 93.1432 178.44 93.2656 178.882 93.2656C179.237 93.2656 179.549 93.1901 179.82 93.0391C180.096 92.888 180.322 92.6667 180.5 92.375C180.677 92.0781 180.789 91.7187 180.835 91.2969H184.406C184.369 92.2865 184.122 93.151 183.664 93.8906C183.21 94.6302 182.572 95.2057 181.75 95.6172C180.932 96.0234 179.96 96.2266 178.835 96.2266ZM189.366 92.8516L189.382 88.2969H189.913L193.288 84H197.616L192.601 90.1562H191.593L189.366 92.8516ZM185.921 96V80H189.741V96H185.921ZM193.374 96L190.233 91.0156L192.749 88.3047L197.788 96H193.374Z" fill="#2DD4BF"/>
<defs>
<clipPath id="clip0_1_130">
<rect width="30" height="30" fill="white" transform="translate(128 15)"/>
</clipPath>
</defs>
</svg>
