<svg width="60" height="60" viewBox="0 0 60 60" fill="none" xmlns="http://www.w3.org/2000/svg">
<rect width="60" height="60" rx="18" fill="#0D9488"/>
<g clip-path="url(#clip0_1_218)">
<path d="M30 17.5C27.3478 17.5 24.8043 18.5536 22.9289 20.4289C21.0536 22.3043 20 24.8478 20 27.5C20 35 30 42.5 30 42.5C30 42.5 40 35 40 27.5C40 24.8478 38.9464 22.3043 37.0711 20.4289C35.1957 18.5536 32.6522 17.5 30 17.5ZM30 31.25C29.0054 31.25 28.0516 30.8549 27.3483 30.1517C26.6451 29.4484 26.25 28.4946 26.25 27.5C26.25 26.5054 26.6451 25.5516 27.3483 24.8483C28.0516 24.1451 29.0054 23.75 30 23.75C30.9946 23.75 31.9484 24.1451 32.6517 24.8483C33.3549 25.5516 33.75 26.5054 33.75 27.5C33.75 28.4946 33.3549 29.4484 32.6517 30.1517C31.9484 30.8549 30.9946 31.25 30 31.25Z" fill="white"/>
</g>
<defs>
<clipPath id="clip0_1_218">
<rect width="30" height="30" fill="white" transform="translate(15 15)"/>
</clipPath>
</defs>
</svg>
